<svg width="24" height="25" viewBox="0 0 24 25" fill="none" xmlns="http://www.w3.org/2000/svg">
<path d="M22.1623 5.79802C21.3989 6.13571 20.5893 6.35749 19.7603 6.45602C20.634 5.93345 21.288 5.11103 21.6003 4.14202C20.7803 4.63002 19.8813 4.97202 18.9443 5.15702C18.3149 4.4836 17.4807 4.03698 16.5713 3.8866C15.6618 3.73622 14.7282 3.89051 13.9156 4.32547C13.1029 4.76043 12.4567 5.4517 12.0774 6.29181C11.6981 7.13192 11.607 8.0738 11.8183 8.97102C10.1554 8.88767 8.52863 8.45554 7.04358 7.70268C5.55854 6.94982 4.24842 5.89306 3.1983 4.60102C2.82659 5.23947 2.63125 5.96524 2.6323 6.70402C2.6323 8.15402 3.3703 9.43502 4.4923 10.185C3.82831 10.1641 3.17893 9.9848 2.5983 9.66202V9.71402C2.5985 10.6797 2.93267 11.6156 3.54414 12.3631C4.15562 13.1105 5.00678 13.6235 5.9533 13.815C5.33691 13.9821 4.6906 14.0067 4.0633 13.887C4.33016 14.7183 4.8503 15.4452 5.55089 15.9661C6.25147 16.487 7.09742 16.7758 7.9703 16.792C7.10278 17.4733 6.10947 17.977 5.04718 18.2742C3.98488 18.5714 2.87442 18.6563 1.7793 18.524C3.69099 19.7534 5.91639 20.4061 8.1893 20.404C15.8823 20.404 20.0893 14.031 20.0893 8.50402C20.0893 8.32402 20.0843 8.14202 20.0763 7.96402C20.8952 7.37218 21.6019 6.63904 22.1633 5.79902L22.1623 5.79802Z" fill="#494949"/>
</svg>
